<svg width="16" height="10" viewBox="0 0 16 10" fill="none" xmlns="http://www.w3.org/2000/svg">
<rect width="16" height="10" fill="#E5E5E5"/>
<g clip-path="url(#clip0)">
<rect width="1440" height="958" transform="translate(-636 -318)" fill="white"/>
<path d="M-303.513 -212.779C-303.513 -231.556 -288.291 -246.779 -269.513 -246.779H804V1577C804 1595.78 788.778 1611 770 1611H-303.513V-212.779Z" fill="#F9F9FA"/>
<rect x="-269" y="-21.75" width="306.242" height="50" rx="5" fill="#C4C4C4" fill-opacity="0.15"/>
<path d="M15.703 1.04635C15.5052 0.848403 15.2708 0.749512 14.9999 0.749512H1.00008C0.729069 0.749512 0.494784 0.848403 0.296837 1.04635C0.0988911 1.24451 0 1.4788 0 1.74964C0 2.02043 0.0988911 2.25471 0.296837 2.45272L7.29676 9.45264C7.49493 9.65059 7.72921 9.7497 8 9.7497C8.27079 9.7497 8.50529 9.65059 8.70307 9.45264L15.703 2.45266C15.9007 2.25471 16 2.02043 16 1.74959C16 1.4788 15.9007 1.24451 15.703 1.04635Z" fill="#23A8A7"/>
</g>
<defs>
<clipPath id="clip0">
<rect width="1440" height="958" fill="white" transform="translate(-636 -318)"/>
</clipPath>
</defs>
</svg>
