<svg width="35" height="34" viewBox="0 0 35 34" fill="none" xmlns="http://www.w3.org/2000/svg">
<rect width="35" height="34" fill="#E5E5E5"/>
<g clip-path="url(#clip0)">
<rect width="1440" height="958" transform="translate(-1243 -142)" fill="white"/>
<path d="M-910.513 -36.7786C-910.513 -55.5562 -895.291 -70.7786 -876.513 -70.7786H197V1753C197 1771.78 181.778 1787 163 1787H-910.513V-36.7786Z" fill="#F9F9FA"/>
<rect x="1.18164" y="0.625488" width="32.7489" height="32.7489" rx="2.5" stroke="#989696" stroke-opacity="0.3"/>
<path d="M22.8817 11.3538C22.0435 10.5081 21.0261 9.86141 19.9045 9.46159C18.7829 9.06176 17.5859 8.91899 16.4017 9.0438C12.7317 9.4138 9.71171 12.3938 9.30171 16.0638C8.75171 20.9138 12.5017 25.0038 17.2317 25.0038C18.7418 25.0038 20.2209 24.5753 21.4972 23.7681C22.7735 22.9609 23.7945 21.8082 24.4417 20.4438C24.7617 19.7738 24.2817 19.0038 23.5417 19.0038C23.1717 19.0038 22.8217 19.2038 22.6617 19.5338C22.0811 20.7828 21.0881 21.7938 19.8496 22.3966C18.6112 22.9994 17.2029 23.1574 15.8617 22.8438C13.6417 22.3538 11.8517 20.5438 11.3817 18.3238C11.1841 17.4461 11.1864 16.5351 11.3884 15.6584C11.5904 14.7817 11.9869 13.9615 12.5486 13.2587C13.1102 12.5559 13.8228 11.9883 14.6334 11.598C15.444 11.2077 16.332 11.0046 17.2317 11.0038C18.8917 11.0038 20.3717 11.6938 21.4517 12.7838L19.9417 14.2938C19.3117 14.9238 19.7517 16.0038 20.6417 16.0038H24.2317C24.7817 16.0038 25.2317 15.5538 25.2317 15.0038V11.4138C25.2317 10.5238 24.1517 10.0738 23.5217 10.7038L22.8817 11.3538Z" fill="#6D6B6B"/>
</g>
<defs>
<clipPath id="clip0">
<rect width="1440" height="958" fill="white" transform="translate(-1243 -142)"/>
</clipPath>
</defs>
</svg>
