<svg width="30" height="30" viewBox="0 0 30 30" fill="none" xmlns="http://www.w3.org/2000/svg">
<rect width="30" height="30" fill="#E5E5E5"/>
<g clip-path="url(#clip0)">
<rect width="1440" height="958" transform="translate(-1274 -442)" fill="white"/>
<path d="M-941.513 -336.779C-941.513 -355.556 -926.291 -370.779 -907.513 -370.779H166V1453C166 1471.78 150.778 1487 132 1487H-941.513V-336.779Z" fill="#F9F9FA"/>
<rect x="-907" y="-75" width="997.872" height="547.968" rx="8" fill="white"/>
<rect width="30" height="30" rx="4" fill="#4DD230" fill-opacity="0.1"/>
<path fill-rule="evenodd" clip-rule="evenodd" d="M13.4696 19.6829L18.595 13.0548C18.8735 12.6974 18.9726 12.2842 18.8797 11.8634C18.7992 11.4809 18.564 11.1172 18.2112 10.8413L17.3507 10.1578C16.6017 9.56207 15.6732 9.62478 15.1409 10.3083L14.5652 11.0551C14.4909 11.1486 14.5095 11.2865 14.6024 11.3618C14.6024 11.3618 16.057 12.5281 16.088 12.5532C16.187 12.6472 16.2613 12.7727 16.2799 12.9232C16.3108 13.2179 16.1065 13.4938 15.8032 13.5314C15.6609 13.5502 15.5247 13.5063 15.4256 13.4248L13.8967 12.2083C13.8224 12.1525 13.711 12.1644 13.6491 12.2397L10.0155 16.9427C9.78027 17.2374 9.6998 17.6199 9.78027 17.9899L10.2445 20.0027C10.2693 20.1093 10.3621 20.1846 10.4736 20.1846L12.5163 20.1595C12.8877 20.1532 13.2343 19.9839 13.4696 19.6829ZM16.3298 19.0561H19.6607C19.9857 19.0561 20.25 19.3239 20.25 19.6531C20.25 19.9829 19.9857 20.2501 19.6607 20.2501H16.3298C16.0048 20.2501 15.7405 19.9829 15.7405 19.6531C15.7405 19.3239 16.0048 19.0561 16.3298 19.0561Z" fill="#4DD230"/>
</g>
<defs>
<clipPath id="clip0">
<rect width="1440" height="958" fill="white" transform="translate(-1274 -442)"/>
</clipPath>
</defs>
</svg>
