<svg width="35" height="34" viewBox="0 0 35 34" fill="none" xmlns="http://www.w3.org/2000/svg">
<rect width="35" height="34" fill="#E5E5E5"/>
<g clip-path="url(#clip0)">
<rect width="1440" height="958" transform="translate(-1287 -142)" fill="white"/>
<path d="M-954.513 -36.7786C-954.513 -55.5562 -939.291 -70.7786 -920.513 -70.7786H153V1753C153 1771.78 137.778 1787 119 1787H-954.513V-36.7786Z" fill="#F9F9FA"/>
<rect x="1.28027" y="0.625488" width="32.7489" height="32.7489" rx="2.5" stroke="#989696" stroke-opacity="0.3"/>
<path d="M17.9456 19.9373C17.7951 19.9373 17.6512 19.8756 17.5476 19.7669L13.6923 15.7281C13.3582 15.3785 13.6064 14.7969 14.0903 14.7969H16.1098V10.5744C16.1098 10.0685 16.5217 9.65649 17.0277 9.65649H18.8636C19.3695 9.65649 19.7815 10.0685 19.7815 10.5744V14.7969H21.8009C22.2849 14.7969 22.5331 15.3785 22.1989 15.7281L18.3436 19.7669C18.2401 19.8756 18.0962 19.9373 17.9456 19.9373Z" fill="#6D6B6B"/>
<path d="M25.473 24.4999H10.4189C9.71025 24.4999 9.13379 23.9234 9.13379 23.2148V22.8476C9.13379 22.139 9.71025 21.5625 10.4189 21.5625H25.473C26.1816 21.5625 26.7581 22.139 26.7581 22.8476V23.2148C26.7581 23.9234 26.1816 24.4999 25.473 24.4999Z" fill="#6D6B6B"/>
</g>
<defs>
<clipPath id="clip0">
<rect width="1440" height="958" fill="white" transform="translate(-1287 -142)"/>
</clipPath>
</defs>
</svg>
